inDegrees=no
num_controls=7
num_derivatives=13
num_iterations=137
num_multipliers=7
num_parameters=0
num_slacks=7
num_states=26
objective=6.269520
objective_accelerations=0.713893
objective_balance=0.073599
objective_effort=0.553261
objective_height=4.881607
objective_ligament=0.047159
solver_duration=1454.338170
status=Solve_Succeeded
success=true
DataType=double
version=3
OpenSimVersion=4.4-2022-07-23-0e9fedc
endheader
time	/jointset/ground_pelvis/pelvis_tilt/value	/jointset/ground_pelvis/pelvis_tx/value	/jointset/ground_pelvis/pelvis_ty/value	/jointset/hip_l/hip_flexion_l/value	/jointset/hip_l/hip_adduction_l/value	/jointset/hip_l/hip_rotation_l/value	/jointset/back/lumbar_extension/value	/jointset/patellofemoral_l/patellar_flexion_l/value	/jointset/knee_l/knee_flexion_l/value	/jointset/knee_l/knee_adduction_l/value	/jointset/knee_l/knee_rotation_l/value	/jointset/ankle_l/ankle_angle_l/value	/jointset/subtalar_l/subtalar_angle_l/value	/jointset/ground_pelvis/pelvis_tilt/speed	/jointset/ground_pelvis/pelvis_tx/speed	/jointset/ground_pelvis/pelvis_ty/speed	/jointset/hip_l/hip_flexion_l/speed	/jointset/hip_l/hip_adduction_l/speed	/jointset/hip_l/hip_rotation_l/speed	/jointset/back/lumbar_extension/speed	/jointset/patellofemoral_l/patellar_flexion_l/speed	/jointset/knee_l/knee_flexion_l/speed	/jointset/knee_l/knee_adduction_l/speed	/jointset/knee_l/knee_rotation_l/speed	/jointset/ankle_l/ankle_angle_l/speed	/jointset/subtalar_l/subtalar_angle_l/speed	/forceset/tau_hip_flexion_l	/forceset/tau_hip_adduction_l	/forceset/tau_hip_rotation_l	/forceset/tau_knee_flexion_l	/forceset/tau_ankle_angle_l	/forceset/tau_subtalar_angle_l	/forceset/tau_lumbar_extension	lambda_cid13_p0	lambda_cid13_p1	lambda_cid13_p2	lambda_cid13_p3	lambda_cid13_p4	lambda_cid13_p5	lambda_cid14_p0	/jointset/ground_pelvis/pelvis_tilt/accel	/jointset/ground_pelvis/pelvis_tx/accel	/jointset/ground_pelvis/pelvis_ty/accel	/jointset/hip_l/hip_flexion_l/accel	/jointset/hip_l/hip_adduction_l/accel	/jointset/hip_l/hip_rotation_l/accel	/jointset/back/lumbar_extension/accel	/jointset/patellofemoral_l/patellar_flexion_l/accel	/jointset/knee_l/knee_flexion_l/accel	/jointset/knee_l/knee_adduction_l/accel	/jointset/knee_l/knee_rotation_l/accel	/jointset/ankle_l/ankle_angle_l/accel	/jointset/subtalar_l/subtalar_angle_l/accel	gamma_cid13_p0	gamma_cid13_p1	gamma_cid13_p2	gamma_cid13_p3	gamma_cid13_p4	gamma_cid13_p5	gamma_cid14_p0
1.5	-0.01318879023842314	-0.008937380474971378	0.8331769134956148	0.761259259164359	-0.3161056803757031	-0.1223324536731468	-0.8053350585340823	0.8784061966559544	0.8784061966559663	-0.06200154998903233	-0.1745316044836466	0.1993465967660918	0.04963336011345887	0.3748809845160191	0.2131282897123692	0.5153614146625662	-2.223995406669877	0.06673357230833338	-0.6199101288237541	0.8369913485180918	-2.262269495533417	-2.262269495533431	-0.2627575392748226	-3.146992524676629e-05	-0.5573794832975507	-0.1359015275557895	-0.2136177718207439	0.0268863332676595	-0.009285320306553031	-0.2316171301951217	0.03857649449663136	0.04496839953293987	0.2883503480020637	-28.54025802581203	-16.68114887726181	4.659302397938792	-7.764027312267483	-662.4542361911807	-74.0844085603148	-11.44266181026402	0.09262182548169466	0.7310179504677538	-0.749280409165895	-0.8212382558565138	0.4011435873734066	-0.6471720558237828	2.139907591219583	-1.201603474335808	-1.201603474335802	-0.1838357522292941	-0.01035503592172939	-0.5138867154285862	0.3696930675859672	5.859193316252665e-07	5.392493691229434e-08	-3.647304172447616e-06	-3.386082015350949e-07	6.938986102002073e-07	4.937105439922081e-07	4.293323772396119e-07
1.51	-0.009435499448666448	-0.006769703734397538	0.8382920401755199	0.7389799766980386	-0.3154196096116714	-0.1285604526067117	-0.7968597149603828	0.8557259821725808	0.8557259821725895	-0.06464300848866721	-0.1745321628640306	0.1937476137550385	0.0482912543812684	0.3757190274252248	0.2203869367356989	0.5075542084798622	-2.231575387997928	0.07048625808551075	-0.6256242131108432	0.8579655943644524	-2.273454529243166	-2.273454529243203	-0.2655266832772169	-6.291095591572901e-05	-0.5623054687188405	-0.1324784246605676	-0.2055223351822643	0.02581736029639569	-0.009108736009380287	-0.227465889309726	0.04032052737336854	0.04453545467042712	0.2805454996086376	-27.69228220611351	-16.73690067704764	4.777050408242539	-7.860861390722058	-656.9701599502708	-74.16881785028249	-12.34263178856524	0.07073218086739083	0.7202091498448179	-0.8127462793942725	-0.6834461376989276	0.363667127304967	-0.5232180857744694	2.059417302639782	-1.029212914769276	-1.029212914772596	-0.3223626810018126	0.002367112427240814	-0.465187595596155	0.3351603810574253	6.056397078854535e-07	2.632607286946665e-07	-3.617445166087352e-06	-3.153659899741172e-07	7.354438358939224e-07	6.599239199774161e-07	4.442267649341068e-07
1.52	-0.005675560898376988	-0.004530056309274835	0.8433258336822835	0.7166334808051531	-0.3146957447789842	-0.1348435306772708	-0.7881779820839606	0.8329434654330263	0.8329434654330098	-0.06731194021968993	-0.1745326545048798	0.1881027242617487	0.04698468797414376	0.3762105366235397	0.2275224266221414	0.499094780034296	-2.237438091982762	0.07429238603928977	-0.6309259562228489	0.8782692090626447	-2.282729946771907	-2.282729946771966	-0.2682521855498979	-1.812202391617061e-05	-0.5665607797448085	-0.1287936625426576	-0.1974268985437674	0.02474838732513821	-0.008932151712401862	-0.2233146484243277	0.04206456025010758	0.0441025098079262	0.2727406512152248	-26.84204310265952	-16.79226609154933	4.89384674628225	-8.014056256149519	-651.4858824942954	-74.33795839771111	-13.22831121859892	0.02331508330345316	0.7063865230903569	-0.8797248617383142	-0.4777827872132345	0.411832022693816	-0.5647038208070307	2.005781361585875	-0.819680238134247	-0.8196802381342316	-0.1751074062865874	0.004890956612167792	-0.3797518363641271	0.4220249121236846	6.174899255963957e-07	4.947742205663585e-07	-3.538940132014898e-06	-2.843569483793261e-07	7.701199884829993e-07	8.207050871833217e-07	4.55887188409817e-07
1.53	-0.001912429722152488	-0.002219767135741911	0.8482718705392748	0.6942368859780428	-0.3139336653689521	-0.1411783016270031	-0.77929683452549	0.8100776757954059	0.8100776757953692	-0.07000753860293922	-0.1745328230819127	0.1824185660303239	0.04571612522245529	0.3763531690905296	0.2345046264478127	0.4900111132522624	-2.241581649040775	0.07812462054998774	-0.6359645828558373	0.8978270425106177	-2.29010024712977	-2.290100247129611	-0.2708588948763879	-6.268588303445999e-06	-0.5701599640239251	-0.1248852062403641	-0.1892437949599602	0.02358191648091886	-0.008678717064892483	-0.2194246432781029	0.04381808397518232	0.04340355623411087	0.2648301008420714	-26.02350527336193	-16.70712774957602	4.966050623603294	-8.003087823699643	-646.2678709199695	-74.32043983947688	-14.09745270669803	0.0004121355357769923	0.6894746515955482	-0.9377468722571479	-0.3376865220383943	0.3694797800528328	-0.4633846945204528	1.910795318175322	-0.6466385939357456	-0.6466385939030382	-0.3021265620279364	0.000100551894446424	-0.3333265501182754	0.3805574599441471	6.209780998487654e-07	7.498515187829525e-07	-3.40874869349824e-06	-2.450956498736085e-07	7.974977508983982e-07	9.757145325612186e-07	4.641115249030686e-07
1.54	0.001850262740164326	0.000159411623905409	0.8531240588712815	0.6718078467089674	-0.3131331514908533	-0.1475614473650424	-0.7702241064361859	0.787147996422324	0.7871479964223034	-0.07272893885268067	-0.1745327195210683	0.1767017509908246	0.04448770732792248	0.376122793843093	0.2413003438450206	0.4803250750373865	-2.243926980376512	0.08197927965246332	-0.6406009138878515	0.9165853152294964	-2.295507893860575	-2.295507893860197	-0.2734125588507768	3.630544165820424e-05	-0.5730921413603546	-0.1207646911115862	-0.181060691376092	0.0224154456367812	-0.008425282417246483	-0.2155346381318642	0.04557160770027985	0.04270460266040119	0.2569195504689476	-25.2011222804926	-16.62265357008538	5.038353498257412	-8.053019099909276	-641.0326134604738	-74.38631349266596	-14.94863459004405	-0.05128645958195218	0.6690900373977474	-1.000199148306731	-0.1181376427577742	0.4163169410493642	-0.4842447006120746	1.845869215766943	-0.4271495127228478	-0.4271495127228274	-0.1644983358663566	0.01103507548200613	-0.2463504478266333	0.4644366774206093	6.250492079579874e-07	1.011575517271725e-06	-3.286612716033612e-06	-2.078388826769378e-07	8.304508084711792e-07	1.123092117060322e-06	4.73976057387375e-07
1.55	0.005608862868026458	0.002605525286261394	0.8578765010099141	0.6493642041144916	-0.3122939754654467	-0.1539892115926261	-0.7609681420204701	0.7641739580755726	0.7641739580755684	-0.07547536649441339	-0.1745320540700967	0.1709589146081598	0.04330155797961754	0.3755338069464242	0.247881775336172	0.4700717501936673	-2.244489433670042	0.08586269505636344	-0.6448421215359994	0.9344490842699955	-2.298961118071245	-2.298961118070996	-0.2758681972703025	0.0001494063556953903	-0.5753593726439632	-0.1164249262088288	-0.1727769982830641	0.02100260198635453	-0.008110444253000533	-0.2120504516685502	0.04746289474389292	0.04182810280784255	0.2489261869573251	-24.37062327535779	-16.44846985278517	5.080333868056019	-7.987856449796674	-636.1653455218035	-74.38263740394783	-15.78119431877847	-0.07217044074462851	0.6465470163438287	-1.051461185986824	0.02158207531197354	0.375663464614816	-0.3770548163897705	1.732858201522067	-0.2537087146189773	-0.253708714638267	-0.2852674179106928	0.01875752348207894	-0.199484884099624	0.4249200006888845	6.297919572501046e-07	1.280957670421919e-06	-3.173758030650673e-06	-1.728916841624299e-07	8.698275756818134e-07	1.261676470546902e-06	4.857303809048531e-07
1.56	0.009359679999711407	0.005116228725802545	0.8625236974933932	0.6269243132366794	-0.3114157033610874	-0.1604559871005753	-0.7515382944236833	0.7411755275188353	0.7411755275188521	-0.07824618468493297	-0.1745287956254583	0.1651968908295673	0.04216004100113764	0.3745661946083544	0.2542182992820541	0.4592759440066598	-2.24317663704507	0.08979849544242249	-0.6484031699630883	0.9513619514437358	-2.30038633585711	-2.30038633585699	-0.278290668606418	0.0005549042344311683	-0.5769296205464363	-0.1118382171466442	-0.1644933051899705	0.0195897583359899	-0.007795606088808946	-0.2085662652052155	0.04935418178752594	0.04095160295536648	0.2409328234457374	-23.53361051635006	-16.2756710268573	5.122817816166785	-7.991362342781478	-631.2472285922245	-74.45799822543977	-16.59529005795479	-0.1270115478622592	0.6201085283439355	-1.10869541696438	0.256912340942716	0.4267939374812043	-0.3482128564001761	1.655688842415098	-0.02154822776184908	-0.02154822776184908	-0.1578649191842837	0.06951446842183133	-0.106953771599424	0.5138255093061258	6.289455061308665e-07	1.533735088761792e-06	-3.042888882488461e-06	-1.383745841079427e-07	9.056566091607809e-07	1.383484169926645e-06	4.936056880869782e-07
1.57	0.01309900043181452	0.007688974572097646	0.8670603687344464	0.6045067875663052	-0.3104977503630869	-0.1669557531925605	-0.7419443462112517	0.7181728330881044	0.7181728330881195	-0.08104036509946592	-0.1745203812817728	0.1594225877562571	0.04106569429229631	0.3732342860119463	0.2602798078163324	0.4479787484207983	-2.240005949236057	0.09380426643949608	-0.6514446424051215	0.967250407609914	-2.299808629465368	-2.299808629465185	-0.2805097056679243	0.001182897386919265	-0.5778140830210003	-0.1069854103281511	-0.1562810817953287	0.01802698540537336	-0.007450033370803418	-0.2053797904458027	0.05114386930430944	0.03991010373151643	0.2330217986263255	-22.77621661258407	-16.00656877533819	5.137718917999653	-7.81195436601943	-626.873404402244	-74.44973900997643	-17.39184517039723	-0.1457820819018921	0.5914957258598771	-1.15197397155559	0.3955853496635435	0.3894823056629329	-0.2657707411713235	1.528831488680356	0.1489185207986134	0.1489185208080402	-0.2483822143467102	0.06715783050585555	-0.0615795510916987	0.4778902735862691	6.211125544974343e-07	1.765756588588766e-06	-2.88950165585216e-06	-1.043951071284816e-07	9.370509754751652e-07	1.48432105167284e-06	4.966322248499123e-07
1.58	0.0168231014646772	0.01032080024571322	0.8714817195512091	0.5821306564437803	-0.3095393369301404	-0.1734826652695885	-0.7321968319401655	0.6951862134109507	0.695186213410911	-0.08385562770759655	-0.1745041437881386	0.153642962645059	0.04002125205273331	0.3715223147606795	0.2660342647461476	0.4362118591486099	-2.23489772747573	0.09789058243027227	-0.6538323669698094	0.9820751631745541	-2.297171385147368	-2.297171385147122	-0.2825071073179436	0.002119534213139844	-0.5779940281238354	-0.1018573232910434	-0.1480688584006692	0.01646421247473453	-0.007104460653152099	-0.2021933156863783	0.05293355682108788	0.03886860450764352	0.2251107738069358	-22.00975115465788	-15.73949637849261	5.153451193269257	-7.70918729125294	-622.4166338068644	-74.51335542052698	-18.17248609270928	-0.2030240788341292	0.5586982074513662	-1.20263415422976	0.6444191312055924	0.4429029362217216	-0.2174632809312709	1.442948722107391	0.3903593574898403	0.3903593574898502	-0.113537836886901	0.1312432031682341	0.03394970274642604	0.5688815530290227	5.944168647527947e-07	1.994393395679199e-06	-2.682602520699671e-06	-5.203466514802196e-08	9.182810828153937e-07	1.553530969845243e-06	4.953441941689098e-07
